<svg width="249" height="46" viewBox="0 0 249 46" fill="none" xmlns="http://www.w3.org/2000/svg">
<path d="M12.006 34.9307C14.238 34.9307 15.924 34.4507 17.064 33.4907C18.216 32.5187 18.792 31.1567 18.792 29.4047C18.792 28.6007 18.636 27.8807 18.324 27.2447C18.024 26.5967 17.586 26.0507 17.01 25.6067C16.434 25.1507 15.726 24.8027 14.886 24.5627C14.046 24.3227 13.092 24.2027 12.024 24.2027H5.616V34.9307H12.006ZM5.616 12.3947V22.8527H11.124C12.3 22.8527 13.302 22.7027 14.13 22.4027C14.97 22.1027 15.654 21.7067 16.182 21.2147C16.722 20.7227 17.118 20.1647 17.37 19.5407C17.622 18.9167 17.748 18.2747 17.748 17.6147C17.748 15.8987 17.202 14.6027 16.11 13.7267C15.03 12.8387 13.356 12.3947 11.088 12.3947H5.616ZM11.088 10.9367C12.54 10.9367 13.8 11.0807 14.868 11.3687C15.936 11.6567 16.818 12.0827 17.514 12.6467C18.21 13.1987 18.726 13.8767 19.062 14.6807C19.398 15.4847 19.566 16.3967 19.566 17.4167C19.566 18.0887 19.446 18.7367 19.206 19.3607C18.978 19.9847 18.642 20.5607 18.198 21.0887C17.766 21.6167 17.226 22.0787 16.578 22.4747C15.942 22.8587 15.21 23.1527 14.382 23.3567C16.386 23.6447 17.922 24.3107 18.99 25.3547C20.07 26.3867 20.61 27.7487 20.61 29.4407C20.61 30.5207 20.418 31.4927 20.034 32.3567C19.65 33.2207 19.092 33.9527 18.36 34.5527C17.628 35.1527 16.728 35.6147 15.66 35.9387C14.592 36.2507 13.38 36.4067 12.024 36.4067H3.762V10.9367H11.088ZM27.1842 18.4967V36.4067H25.4742V18.4967H27.1842ZM27.9222 12.3227C27.9222 12.5387 27.8742 12.7427 27.7782 12.9347C27.6942 13.1147 27.5802 13.2767 27.4362 13.4207C27.2922 13.5647 27.1242 13.6787 26.9322 13.7627C26.7402 13.8467 26.5362 13.8887 26.3202 13.8887C26.1042 13.8887 25.9002 13.8467 25.7082 13.7627C25.5162 13.6787 25.3482 13.5647 25.2042 13.4207C25.0602 13.2767 24.9462 13.1147 24.8622 12.9347C24.7782 12.7427 24.7362 12.5387 24.7362 12.3227C24.7362 12.1067 24.7782 11.9027 24.8622 11.7107C24.9462 11.5067 25.0602 11.3327 25.2042 11.1887C25.3482 11.0447 25.5162 10.9307 25.7082 10.8467C25.9002 10.7627 26.1042 10.7207 26.3202 10.7207C26.5362 10.7207 26.7402 10.7627 26.9322 10.8467C27.1242 10.9307 27.2922 11.0447 27.4362 11.1887C27.5802 11.3327 27.6942 11.5067 27.7782 11.7107C27.8742 11.9027 27.9222 12.1067 27.9222 12.3227ZM45.0458 18.4967V19.2167C45.0458 19.4687 44.9618 19.6967 44.7938 19.9007L33.5798 35.0567H44.5958V36.4067H31.5098V35.7227C31.5098 35.5187 31.5998 35.2967 31.7798 35.0567L43.0298 19.8467H32.1038V18.4967H45.0458ZM59.2788 27.7487C57.5748 27.8087 56.1048 27.9467 54.8688 28.1627C53.6448 28.3667 52.6308 28.6487 51.8268 29.0087C51.0348 29.3687 50.4468 29.8007 50.0628 30.3047C49.6788 30.7967 49.4868 31.3607 49.4868 31.9967C49.4868 32.5967 49.5828 33.1187 49.7748 33.5627C49.9788 33.9947 50.2428 34.3547 50.5668 34.6427C50.9028 34.9187 51.2868 35.1227 51.7188 35.2547C52.1508 35.3867 52.6008 35.4527 53.0688 35.4527C53.7648 35.4527 54.4008 35.3807 54.9768 35.2367C55.5648 35.0807 56.1048 34.8707 56.5968 34.6067C57.1008 34.3307 57.5688 34.0067 58.0008 33.6347C58.4328 33.2627 58.8588 32.8607 59.2788 32.4287V27.7487ZM48.7488 21.0347C49.6848 20.0987 50.6688 19.3907 51.7008 18.9107C52.7328 18.4307 53.9028 18.1907 55.2108 18.1907C56.1708 18.1907 57.0108 18.3467 57.7308 18.6587C58.4508 18.9587 59.0448 19.3967 59.5128 19.9727C59.9928 20.5367 60.3528 21.2267 60.5928 22.0427C60.8328 22.8467 60.9528 23.7467 60.9528 24.7427V36.4067H60.2688C59.9088 36.4067 59.6868 36.2387 59.6028 35.9027L59.3508 33.5987C58.8588 34.0787 58.3668 34.5107 57.8748 34.8947C57.3948 35.2787 56.8908 35.6027 56.3628 35.8667C55.8348 36.1307 55.2648 36.3347 54.6528 36.4787C54.0408 36.6227 53.3688 36.6947 52.6368 36.6947C52.0248 36.6947 51.4308 36.6047 50.8548 36.4247C50.2788 36.2447 49.7628 35.9687 49.3068 35.5967C48.8628 35.2247 48.5028 34.7507 48.2268 34.1747C47.9628 33.5867 47.8308 32.8847 47.8308 32.0687C47.8308 31.3127 48.0468 30.6107 48.4788 29.9627C48.9108 29.3147 49.5888 28.7507 50.5128 28.2707C51.4368 27.7907 52.6188 27.4067 54.0588 27.1187C55.5108 26.8307 57.2508 26.6627 59.2788 26.6147V24.7427C59.2788 23.0867 58.9188 21.8147 58.1988 20.9267C57.4908 20.0267 56.4348 19.5767 55.0308 19.5767C54.1668 19.5767 53.4288 19.6967 52.8168 19.9367C52.2168 20.1767 51.7068 20.4407 51.2868 20.7287C50.8668 21.0167 50.5248 21.2807 50.2608 21.5207C49.9968 21.7607 49.7748 21.8807 49.5948 21.8807C49.4628 21.8807 49.3548 21.8507 49.2708 21.7907C49.1868 21.7307 49.1148 21.6527 49.0548 21.5567L48.7488 21.0347ZM68.3283 22.8167C68.6043 22.0847 68.9163 21.4367 69.2643 20.8727C69.6243 20.2967 70.0323 19.8107 70.4883 19.4147C70.9563 19.0187 71.4723 18.7187 72.0363 18.5147C72.6123 18.2987 73.2483 18.1907 73.9443 18.1907C74.3163 18.1907 74.6823 18.2267 75.0423 18.2987C75.4023 18.3587 75.7203 18.4727 75.9963 18.6407L75.8523 19.8287C75.7923 20.0207 75.6783 20.1167 75.5103 20.1167C75.3663 20.1167 75.1443 20.0747 74.8443 19.9907C74.5563 19.9067 74.1723 19.8647 73.6923 19.8647C72.9963 19.8647 72.3783 19.9727 71.8383 20.1887C71.3103 20.3927 70.8303 20.7047 70.3983 21.1247C69.9783 21.5447 69.6063 22.0667 69.2823 22.6907C68.9703 23.3027 68.6823 24.0107 68.4183 24.8147V36.4067H66.6903V18.4967H67.6083C67.8123 18.4967 67.9563 18.5387 68.0403 18.6227C68.1243 18.7067 68.1783 18.8507 68.2023 19.0547L68.3283 22.8167ZM81.0548 22.8167C81.3308 22.0847 81.6428 21.4367 81.9908 20.8727C82.3508 20.2967 82.7588 19.8107 83.2148 19.4147C83.6828 19.0187 84.1988 18.7187 84.7628 18.5147C85.3388 18.2987 85.9748 18.1907 86.6708 18.1907C87.0428 18.1907 87.4088 18.2267 87.7688 18.2987C88.1288 18.3587 88.4468 18.4727 88.7228 18.6407L88.5788 19.8287C88.5188 20.0207 88.4048 20.1167 88.2368 20.1167C88.0928 20.1167 87.8708 20.0747 87.5708 19.9907C87.2828 19.9067 86.8988 19.8647 86.4188 19.8647C85.7228 19.8647 85.1048 19.9727 84.5648 20.1887C84.0368 20.3927 83.5568 20.7047 83.1248 21.1247C82.7048 21.5447 82.3328 22.0667 82.0088 22.6907C81.6968 23.3027 81.4088 24.0107 81.1448 24.8147V36.4067H79.4168V18.4967H80.3348C80.5388 18.4967 80.6828 18.5387 80.7668 18.6227C80.8508 18.7067 80.9048 18.8507 80.9288 19.0547L81.0548 22.8167ZM103.688 25.6427C103.688 24.6827 103.55 23.8247 103.274 23.0687C103.01 22.3007 102.632 21.6527 102.14 21.1247C101.648 20.5967 101.06 20.1947 100.376 19.9187C99.7039 19.6307 98.9599 19.4867 98.1439 19.4867C97.2199 19.4867 96.3919 19.6307 95.6599 19.9187C94.9279 20.2067 94.2919 20.6207 93.7519 21.1607C93.2239 21.7007 92.7979 22.3487 92.4739 23.1047C92.1499 23.8607 91.9339 24.7067 91.8259 25.6427H103.688ZM91.7359 26.7407V27.0827C91.7359 28.4267 91.8919 29.6087 92.2039 30.6287C92.5159 31.6487 92.9599 32.5067 93.5359 33.2027C94.1119 33.8867 94.8079 34.4027 95.6239 34.7507C96.4399 35.0987 97.3519 35.2727 98.3599 35.2727C99.2599 35.2727 100.04 35.1767 100.7 34.9847C101.36 34.7807 101.912 34.5587 102.356 34.3187C102.812 34.0667 103.172 33.8447 103.436 33.6527C103.7 33.4487 103.892 33.3467 104.012 33.3467C104.168 33.3467 104.288 33.4067 104.372 33.5267L104.84 34.1027C104.552 34.4627 104.168 34.7987 103.688 35.1107C103.22 35.4227 102.692 35.6927 102.104 35.9207C101.528 36.1367 100.904 36.3107 100.232 36.4427C99.5719 36.5747 98.9059 36.6407 98.2339 36.6407C97.0099 36.6407 95.8939 36.4307 94.8859 36.0107C93.8779 35.5787 93.0139 34.9547 92.2939 34.1387C91.5739 33.3227 91.0159 32.3267 90.6199 31.1507C90.2359 29.9627 90.0439 28.6067 90.0439 27.0827C90.0439 25.7987 90.2239 24.6167 90.5839 23.5367C90.9559 22.4447 91.4839 21.5087 92.1679 20.7287C92.8639 19.9367 93.7099 19.3187 94.7059 18.8747C95.7139 18.4307 96.8539 18.2087 98.1259 18.2087C99.1339 18.2087 100.07 18.3827 100.934 18.7307C101.798 19.0787 102.548 19.5887 103.184 20.2607C103.82 20.9207 104.318 21.7367 104.678 22.7087C105.05 23.6807 105.236 24.7967 105.236 26.0567C105.236 26.3207 105.2 26.5007 105.128 26.5967C105.056 26.6927 104.936 26.7407 104.768 26.7407H91.7359ZM135.951 12.5027H127.005V36.4067H125.151V12.5027H116.151V10.9367H135.951V12.5027ZM141.266 18.4967V36.4067H139.556V18.4967H141.266ZM142.004 12.3227C142.004 12.5387 141.956 12.7427 141.86 12.9347C141.776 13.1147 141.662 13.2767 141.518 13.4207C141.374 13.5647 141.206 13.6787 141.014 13.7627C140.822 13.8467 140.618 13.8887 140.402 13.8887C140.186 13.8887 139.982 13.8467 139.79 13.7627C139.598 13.6787 139.43 13.5647 139.286 13.4207C139.142 13.2767 139.028 13.1147 138.944 12.9347C138.86 12.7427 138.818 12.5387 138.818 12.3227C138.818 12.1067 138.86 11.9027 138.944 11.7107C139.028 11.5067 139.142 11.3327 139.286 11.1887C139.43 11.0447 139.598 10.9307 139.79 10.8467C139.982 10.7627 140.186 10.7207 140.402 10.7207C140.618 10.7207 140.822 10.7627 141.014 10.8467C141.206 10.9307 141.374 11.0447 141.518 11.1887C141.662 11.3327 141.776 11.5067 141.86 11.7107C141.956 11.9027 142.004 12.1067 142.004 12.3227ZM147.374 36.4067V18.4967H148.328C148.628 18.4967 148.802 18.6467 148.85 18.9467L149.012 21.5387C149.708 20.5427 150.506 19.7387 151.406 19.1267C152.306 18.5147 153.32 18.2087 154.448 18.2087C155.756 18.2087 156.8 18.5867 157.58 19.3427C158.372 20.0987 158.906 21.1487 159.182 22.4927C159.398 21.7607 159.698 21.1247 160.082 20.5847C160.478 20.0447 160.928 19.6007 161.432 19.2527C161.936 18.8927 162.482 18.6287 163.07 18.4607C163.67 18.2927 164.282 18.2087 164.906 18.2087C165.794 18.2087 166.592 18.3587 167.3 18.6587C168.008 18.9467 168.608 19.3787 169.1 19.9547C169.592 20.5307 169.97 21.2387 170.234 22.0787C170.498 22.9187 170.63 23.8787 170.63 24.9587V36.4067H168.92V24.9587C168.92 23.2067 168.542 21.8747 167.786 20.9627C167.03 20.0387 165.95 19.5767 164.546 19.5767C163.922 19.5767 163.322 19.6907 162.746 19.9187C162.182 20.1467 161.678 20.4887 161.234 20.9447C160.802 21.3887 160.454 21.9467 160.19 22.6187C159.938 23.2907 159.812 24.0707 159.812 24.9587V36.4067H158.084V24.9587C158.084 23.2187 157.736 21.8867 157.04 20.9627C156.356 20.0387 155.348 19.5767 154.016 19.5767C153.044 19.5767 152.144 19.8647 151.316 20.4407C150.488 21.0167 149.75 21.8147 149.102 22.8347V36.4067H147.374ZM188.907 25.6427C188.907 24.6827 188.769 23.8247 188.493 23.0687C188.229 22.3007 187.851 21.6527 187.359 21.1247C186.867 20.5967 186.279 20.1947 185.595 19.9187C184.923 19.6307 184.179 19.4867 183.363 19.4867C182.439 19.4867 181.611 19.6307 180.879 19.9187C180.147 20.2067 179.511 20.6207 178.971 21.1607C178.443 21.7007 178.017 22.3487 177.693 23.1047C177.369 23.8607 177.153 24.7067 177.045 25.6427H188.907ZM176.955 26.7407V27.0827C176.955 28.4267 177.111 29.6087 177.423 30.6287C177.735 31.6487 178.179 32.5067 178.755 33.2027C179.331 33.8867 180.027 34.4027 180.843 34.7507C181.659 35.0987 182.571 35.2727 183.579 35.2727C184.479 35.2727 185.259 35.1767 185.919 34.9847C186.579 34.7807 187.131 34.5587 187.575 34.3187C188.031 34.0667 188.391 33.8447 188.655 33.6527C188.919 33.4487 189.111 33.3467 189.231 33.3467C189.387 33.3467 189.507 33.4067 189.591 33.5267L190.059 34.1027C189.771 34.4627 189.387 34.7987 188.907 35.1107C188.439 35.4227 187.911 35.6927 187.323 35.9207C186.747 36.1367 186.123 36.3107 185.451 36.4427C184.791 36.5747 184.125 36.6407 183.453 36.6407C182.229 36.6407 181.113 36.4307 180.105 36.0107C179.097 35.5787 178.233 34.9547 177.513 34.1387C176.793 33.3227 176.235 32.3267 175.839 31.1507C175.455 29.9627 175.263 28.6067 175.263 27.0827C175.263 25.7987 175.443 24.6167 175.803 23.5367C176.175 22.4447 176.703 21.5087 177.387 20.7287C178.083 19.9367 178.929 19.3187 179.925 18.8747C180.933 18.4307 182.073 18.2087 183.345 18.2087C184.353 18.2087 185.289 18.3827 186.153 18.7307C187.017 19.0787 187.767 19.5887 188.403 20.2607C189.039 20.9207 189.537 21.7367 189.897 22.7087C190.269 23.6807 190.455 24.7967 190.455 26.0567C190.455 26.3207 190.419 26.5007 190.347 26.5967C190.275 26.6927 190.155 26.7407 189.987 26.7407H176.955ZM196.754 22.8167C197.03 22.0847 197.342 21.4367 197.69 20.8727C198.05 20.2967 198.458 19.8107 198.914 19.4147C199.382 19.0187 199.898 18.7187 200.462 18.5147C201.038 18.2987 201.674 18.1907 202.37 18.1907C202.742 18.1907 203.108 18.2267 203.468 18.2987C203.828 18.3587 204.146 18.4727 204.422 18.6407L204.278 19.8287C204.218 20.0207 204.104 20.1167 203.936 20.1167C203.792 20.1167 203.57 20.0747 203.27 19.9907C202.982 19.9067 202.598 19.8647 202.118 19.8647C201.422 19.8647 200.804 19.9727 200.264 20.1887C199.736 20.3927 199.256 20.7047 198.824 21.1247C198.404 21.5447 198.032 22.0667 197.708 22.6907C197.396 23.3027 197.108 24.0107 196.844 24.8147V36.4067H195.116V18.4967H196.034C196.238 18.4967 196.382 18.5387 196.466 18.6227C196.55 18.7067 196.604 18.8507 196.628 19.0547L196.754 22.8167Z" fill="#CCCCCC"/>
<path d="M240.999 14.8269L231.73 14.827L234.098 22.662L240.999 14.8269Z" fill="#DD1616"/>
<path d="M219.659 39.5733L238.066 44.5053L236.986 37.0905L221.074 37.0905L219.659 39.5733Z" fill="#DD1616"/>
<path d="M245.545 5.33882L232.479 1.83756C231.042 1.45275 229.703 2.71379 230.002 4.17037L237.67 41.643C237.968 43.0996 236.629 44.3607 235.193 43.9759L222.126 40.4746C220.69 40.0898 220.161 38.3282 221.147 37.2158L246.524 8.59762C247.511 7.48522 246.982 5.72363 245.545 5.33882Z" stroke="#CCCCCC" stroke-width="2"/>
</svg>
